<svg width="160" height="100" viewBox="0 0 160 100" fill="none" xmlns="http://www.w3.org/2000/svg">
<g clip-path="url(#clip0_3_4829)">
<path d="M47.1758 20.7061C43.5805 21.8728 39.8801 22.683 36.1276 23.1251C36.1276 23.1251 70.0676 34.4877 77.0722 59.3878C77.0722 59.3878 83.5464 38.5489 47.1758 20.7061Z" fill="#2B6AFB"/>
<path d="M79.2377 59.1213C79.2377 59.1213 90.0207 22.8586 124.491 24.745L132.291 32.0685C132.291 32.0685 98.6383 32.3348 79.2377 59.1213Z" fill="#2B6AFB"/>
<path d="M150.609 50.444L141.991 43.7862C141.991 43.7862 104.295 26.1874 78.42 63.7596C78.42 63.7152 98.9034 52.3525 150.609 50.444Z" fill="#2B6AFB"/>
<path d="M78.4201 63.7155C78.4201 63.7155 57.4506 28.8509 15.6663 43.143L5.70081 50.7329C5.70081 50.7329 56.8761 52.3529 78.4201 63.7155Z" fill="#2B6AFB"/>
<path d="M4.97164 53.2624L78.2433 66.9774L155.581 52.0196C155.581 52.0196 158.63 51.1097 159.337 53.6397C159.337 53.6397 160.243 56.1474 156.288 57.0573L77.713 72.3703L3.00506 57.945C2.57566 57.9245 2.15609 57.8089 1.77636 57.6065C1.39663 57.4041 1.06615 57.1199 0.808556 56.7743C0.550962 56.4286 0.372629 56.03 0.28632 55.6071C0.20001 55.1841 0.207858 54.7472 0.309302 54.3276C0.309302 54.3276 0.132531 51.9974 4.97164 53.2624Z" fill="#4946F9"/>
<path d="M68.6093 4.06152C68.6093 4.06152 68.4988 16.2897 58.0472 17.7544C58.0472 17.7544 69.3606 18.2204 68.2116 29.9381C68.2116 29.9381 70.9515 17.4215 79.9448 17.7544C76.7421 17.2001 73.8412 15.5168 71.7635 13.0069C69.6858 10.4971 68.5674 7.32529 68.6093 4.06152Z" fill="#E30102"/>
<path d="M83.6127 20.9277C83.6127 20.9277 83.6127 31.0254 74.7742 32.3126C76.015 32.3355 77.2365 32.6252 78.3564 33.1623C79.4763 33.6994 80.4686 34.4714 81.2664 35.4262C82.0642 36.3809 82.6489 37.4964 82.9812 38.6973C83.3136 39.8982 83.3857 41.1567 83.1929 42.388C83.1929 42.388 85.4025 32.024 92.9153 32.3126C90.2713 31.8334 87.8833 30.4247 86.1789 28.3388C84.4744 26.2529 83.5648 23.6258 83.6127 20.9277Z" fill="#FFA10E"/>
<path d="M89.2253 -0.177734C89.2253 -0.177734 89.2253 8.12231 82.0439 9.16536C83.062 9.18828 84.0635 9.42908 84.9816 9.87167C85.8996 10.3143 86.7131 10.9485 87.3677 11.7319C88.0223 12.5154 88.5029 13.4301 88.7775 14.415C89.0521 15.3999 89.1144 16.4322 88.9601 17.4432C88.9601 17.4432 90.8162 8.87686 96.9369 9.16536C94.7525 8.78939 92.7741 7.64068 91.3597 5.92702C89.9453 4.21335 89.1882 2.04788 89.2253 -0.177734Z" fill="#FFCF00"/>
<path d="M23.7757 85.8414C24.1292 85.8414 24.306 85.5307 24.306 84.8871V80.4486C24.306 79.7385 24.0629 79.3834 23.5547 79.3834C23.0465 79.3834 22.7814 79.5609 22.7814 79.916C22.7667 80.0784 22.7667 80.2418 22.7814 80.4042C22.7814 80.6262 22.7814 80.7815 22.7814 80.8703C22.7814 81.8024 22.3836 82.2684 21.6102 82.2684C21.4524 82.2789 21.2944 82.2523 21.1486 82.1906C21.0028 82.129 20.8734 82.034 20.7706 81.9133C20.6568 81.7876 20.569 81.6405 20.5121 81.4806C20.4552 81.3206 20.4304 81.1509 20.4391 80.9812C20.4254 80.7299 20.4254 80.478 20.4391 80.2267C20.4599 79.983 20.4599 79.738 20.4391 79.4943C20.4546 79.2357 20.4546 78.9763 20.4391 78.7176C20.4391 78.4513 20.4391 78.2515 20.4391 78.0962C20.4239 78.0024 20.4311 77.9063 20.4601 77.8158C20.4891 77.7253 20.5392 77.6431 20.6061 77.5759C20.673 77.5087 20.7549 77.4584 20.845 77.4293C20.935 77.4001 21.0307 77.3929 21.1241 77.4082H22.0301C22.8476 77.4082 24.0188 77.5192 25.4992 77.5192C26.9797 77.5192 28.1729 77.5192 29.0125 77.4082H29.8964C29.9906 77.3939 30.0868 77.4016 30.1776 77.4307C30.2684 77.4599 30.3512 77.5097 30.4196 77.5763C30.4881 77.6429 30.5403 77.7244 30.5722 77.8146C30.604 77.9048 30.6148 78.0012 30.6035 78.0962C30.6035 78.2515 30.6035 78.4735 30.6035 78.7842C30.6035 79.0949 30.6035 79.339 30.6035 79.4943C30.6035 79.6497 30.6035 79.8938 30.6035 80.2267C30.6035 80.5596 30.6035 80.9147 30.6035 80.9812C30.6174 81.3263 30.5076 81.6649 30.2941 81.9355C30.1804 82.0468 30.0454 82.1336 29.8973 82.1909C29.7492 82.2481 29.591 82.2745 29.4324 82.2684C28.659 82.2684 28.2834 81.8246 28.2834 80.9147C28.2655 80.7524 28.2655 80.5887 28.2834 80.4264C28.2834 80.2267 28.2834 80.0713 28.2834 79.9604C28.2834 79.8494 28.0624 79.3834 27.5984 79.3834C27.4801 79.3719 27.3607 79.3879 27.2496 79.4302C27.1384 79.4726 27.0385 79.5401 26.9576 79.6275C26.8089 79.8736 26.7466 80.1628 26.7808 80.4486V84.8871C26.7808 85.5307 26.9576 85.8414 27.289 85.8414H27.7972H28.3055C28.4345 85.8229 28.5661 85.8348 28.6898 85.8762C28.8135 85.9176 28.9259 85.9873 29.0181 86.0799C29.1103 86.1725 29.1798 86.2854 29.221 86.4097C29.2622 86.5339 29.2741 86.6661 29.2556 86.7957C29.2556 87.6168 28.8579 88.0163 28.0845 88.0163H27.0018C26.3831 88.0163 25.8528 88.0163 25.3887 88.0163C24.9247 88.0163 24.4165 88.0163 23.7978 88.0163H22.7151C22.5594 88.0416 22.4001 88.0301 22.2496 87.9829C22.0992 87.9357 21.9617 87.8539 21.8481 87.7441C21.7345 87.6343 21.6479 87.4995 21.5951 87.3503C21.5423 87.2011 21.5248 87.0416 21.544 86.8845C21.544 86.1965 21.8754 85.8414 22.4941 85.8414H23.0023H23.7757Z" fill="#4946F9"/>
<path d="M44.3253 80.2934V82.8455C44.3618 83.5404 44.3618 84.2367 44.3253 84.9316C44.2876 85.6195 44.0233 86.2752 43.574 86.7958C43.0685 87.2711 42.4684 87.6335 41.8133 87.8592C41.1583 88.0849 40.4631 88.1687 39.7735 88.1052C39.1032 88.1736 38.4263 88.0871 37.7943 87.8525C37.1624 87.6179 36.5923 87.2413 36.1275 86.7514C35.672 86.031 35.4555 85.1841 35.5088 84.3324C35.5088 84.3324 35.5088 83.6666 35.5088 82.6014C35.5088 81.8912 35.5088 81.3364 35.5088 80.8926V80.2934C35.5088 79.7385 35.3542 79.45 35.0669 79.45H34.7134H34.3377C34.2232 79.4493 34.1103 79.423 34.0071 79.3731C33.904 79.3233 33.8131 79.251 33.7411 79.1615C33.5788 78.9527 33.493 78.6941 33.4981 78.4292C33.4876 78.2707 33.5141 78.1119 33.5755 77.9655C33.6369 77.8191 33.7314 77.6891 33.8516 77.5858C34.0888 77.3754 34.3971 77.2642 34.7134 77.2751H35.7519C36.0903 77.2983 36.4299 77.2983 36.7683 77.2751C37.0625 77.2997 37.3581 77.2997 37.6522 77.2751H38.5361C38.6758 77.2723 38.8147 77.2984 38.9439 77.3518C39.0732 77.4053 39.1901 77.4849 39.2873 77.5858C39.4757 77.8248 39.57 78.1249 39.5525 78.4292C39.5525 79.0506 39.3536 79.3613 38.9338 79.3613H38.5582C38.3814 79.3613 38.293 79.4722 38.2488 79.672V83.7998C38.2002 84.338 38.3324 84.8771 38.6244 85.3311C38.7828 85.4957 38.9768 85.6214 39.1914 85.6984C39.4061 85.7754 39.6355 85.8016 39.8618 85.7749C40.093 85.7957 40.3259 85.7646 40.5437 85.684C40.7615 85.6034 40.9588 85.4753 41.1213 85.3089C41.4315 84.8708 41.5728 84.3346 41.5191 83.7998V80.2934C41.5554 80.0506 41.5554 79.8037 41.5191 79.561C41.5191 79.561 41.3865 79.4278 41.2539 79.4278H40.9004C40.4805 79.4278 40.2596 79.1171 40.2596 78.4736C40.2516 78.1737 40.3539 77.8814 40.5468 77.6524C40.6474 77.5498 40.768 77.4693 40.9011 77.4158C41.0342 77.3623 41.1769 77.3371 41.3202 77.3417H42.2041C42.5056 77.3656 42.8085 77.3656 43.11 77.3417C43.4484 77.3649 43.788 77.3649 44.1264 77.3417H45.165C45.4744 77.332 45.7755 77.4434 46.0046 77.6524C46.1143 77.7619 46.1988 77.894 46.2522 78.0397C46.3056 78.1854 46.3267 78.341 46.314 78.4957C46.3252 78.628 46.3094 78.7612 46.2676 78.8871C46.2258 79.013 46.1589 79.129 46.0709 79.2281C45.999 79.3232 45.9051 79.3992 45.7972 79.4495C45.6894 79.4998 45.571 79.5228 45.4522 79.5166H45.0987H44.7672C44.4579 79.4056 44.3253 79.6941 44.3253 80.2934Z" fill="#4946F9"/>
<path d="M54.2024 84.3323C53.9152 84.3323 53.7826 84.4654 53.7826 84.7983V85.2866C53.7826 85.6416 53.9373 85.8192 54.2466 85.8192C54.4007 85.8392 54.5566 85.8392 54.7107 85.8192H55.2852C55.4031 85.8182 55.5199 85.8436 55.6269 85.8935C55.7339 85.9434 55.8285 86.0165 55.9039 86.1077C56.0813 86.3316 56.178 86.6093 56.178 86.8955C56.178 87.1817 56.0813 87.4595 55.9039 87.6834C55.7966 87.7894 55.6685 87.8718 55.5277 87.9253C55.3869 87.9788 55.2366 88.0022 55.0863 87.9941H53.8047C53.3705 87.97 52.9352 87.97 52.501 87.9941H51.3962H50.6228H50.203C50.0557 88.0048 49.908 87.9825 49.7704 87.9288C49.6328 87.8751 49.5088 87.7912 49.4075 87.6834C49.3041 87.5741 49.2235 87.4452 49.1703 87.3042C49.1172 87.1631 49.0927 87.0129 49.0982 86.8622C49.0931 86.5973 49.1789 86.3387 49.3412 86.1299C49.4086 86.0338 49.4979 85.9555 49.6018 85.9014C49.7056 85.8473 49.8209 85.8191 49.9378 85.8192H50.3356H50.6891C50.9764 85.8192 51.1089 85.4641 51.1089 84.7539V80.3154C51.1299 80.1014 51.1299 79.8858 51.1089 79.6718C51.1089 79.4055 50.9322 79.2724 50.7333 79.2724H50.3577H49.982C49.8651 79.2724 49.7498 79.2442 49.646 79.1902C49.5421 79.1361 49.4528 79.0577 49.3854 78.9617C49.2179 78.7556 49.1315 78.4951 49.1424 78.2293C49.1369 78.0786 49.1614 77.9284 49.2145 77.7874C49.2677 77.6464 49.3483 77.5175 49.4517 77.4082C49.5562 77.297 49.6833 77.2097 49.8244 77.1523C49.9655 77.0949 50.1172 77.0686 50.2693 77.0753H50.3798H51.5067C51.8893 77.0996 52.2731 77.0996 52.6557 77.0753H54.2908H55.5724C56.5744 77.0243 57.5569 77.3665 58.3124 78.0296C58.6504 78.3622 58.919 78.7593 59.1024 79.1976C59.2857 79.6358 59.3801 80.1064 59.3801 80.5817C59.3801 81.0571 59.2857 81.5276 59.1024 81.9659C58.919 82.4041 58.6504 82.8012 58.3124 83.1339C57.9044 83.5272 57.423 83.8356 56.8959 84.0413C56.3688 84.247 55.8063 84.3459 55.241 84.3323H54.2245H54.2024ZM53.7826 81.6914C53.7443 81.8668 53.7443 82.0485 53.7826 82.224C53.9179 82.2751 54.0671 82.2751 54.2024 82.224H54.4676C55.6829 82.224 56.3016 81.8023 56.3016 80.7593C56.3016 79.7162 55.7492 79.2724 54.6444 79.2724C54.4615 79.2417 54.2748 79.2417 54.092 79.2724C54.0011 79.2901 53.9181 79.3361 53.8547 79.4038C53.7913 79.4715 53.7506 79.5575 53.7384 79.6496C53.7236 79.8046 53.7236 79.9607 53.7384 80.1157L53.7826 81.6914Z" fill="#4946F9"/>
<path d="M72.7855 80.2929V82.845C72.7855 84.0212 72.7855 84.7092 72.7855 84.9311C72.7399 85.6213 72.4679 86.2768 72.0121 86.7953C71.5199 87.2636 70.9349 87.6224 70.2952 87.848C69.6555 88.0736 68.9756 88.1611 68.2999 88.1047C67.6296 88.1731 66.9527 88.0866 66.3208 87.852C65.6889 87.6174 65.1188 87.2408 64.654 86.7509C64.2037 86.0296 64.0018 85.1797 64.0795 84.3319C64.0795 84.3319 64.0795 83.6662 64.0795 82.6009C64.0795 81.8907 64.0795 81.3359 64.0795 80.8921V80.2929C64.0795 79.7381 63.9248 79.4495 63.6155 79.4495H63.284H62.9084C62.793 79.454 62.6784 79.4301 62.5744 79.3798C62.4704 79.3295 62.3802 79.2544 62.3118 79.161C62.1495 78.9522 62.0636 78.6936 62.0687 78.4287C62.0603 78.2725 62.0856 78.1162 62.1428 77.9707C62.2 77.8251 62.2878 77.6937 62.4002 77.5854C62.6441 77.3716 62.9606 77.2603 63.284 77.2747H64.3005C64.6462 77.298 64.9932 77.298 65.339 77.2747C65.6331 77.2983 65.9287 77.2983 66.2228 77.2747H67.1067C67.2435 77.2692 67.3799 77.2942 67.5059 77.348C67.632 77.4017 67.7447 77.4828 67.8359 77.5854C67.937 77.6998 68.0145 77.8333 68.0638 77.9781C68.1132 78.1228 68.1333 78.276 68.1231 78.4287C68.1231 79.0501 67.9022 79.3608 67.4823 79.3608H67.1288C67.0467 79.3608 66.9681 79.3935 66.9101 79.4518C66.852 79.5101 66.8194 79.5891 66.8194 79.6715V83.7993C66.7643 84.335 66.8887 84.8739 67.173 85.3306C67.3313 85.4952 67.5253 85.621 67.74 85.6979C67.9546 85.7749 68.184 85.8011 68.4104 85.7744C68.645 85.797 68.8817 85.7669 69.1034 85.6863C69.325 85.6057 69.5261 85.4766 69.692 85.3084C70.0021 84.8703 70.1435 84.3341 70.0897 83.7993V80.2929C70.126 80.0501 70.126 79.8033 70.0897 79.5605C70.0897 79.5605 69.9571 79.4274 69.8025 79.4274H69.3826C68.9628 79.4274 68.7418 79.1167 68.7418 78.4731C68.7334 78.3239 68.7544 78.1746 68.8037 78.0337C68.853 77.8927 68.9296 77.763 69.0291 77.652C69.1263 77.5511 69.2432 77.4714 69.3725 77.4179C69.5017 77.3645 69.6406 77.3384 69.7804 77.3413H70.6863C70.9805 77.3649 71.276 77.3649 71.5702 77.3413C71.916 77.3646 72.2629 77.3646 72.6087 77.3413H73.6251C73.9414 77.3303 74.2498 77.4415 74.4869 77.652C74.592 77.7646 74.6735 77.8973 74.7267 78.0421C74.7798 78.187 74.8035 78.3411 74.7962 78.4953C74.8071 78.761 74.7207 79.0216 74.5532 79.2276C74.48 79.3213 74.3858 79.3963 74.2783 79.4465C74.1708 79.4966 74.053 79.5205 73.9345 79.5161H73.5809H73.2495C72.9181 79.4052 72.7855 79.6937 72.7855 80.2929Z" fill="#4946F9"/>
<path d="M86.9493 85.8414C87.3028 85.8414 87.4796 85.5307 87.4796 84.8871V80.4486C87.4796 79.7385 87.2365 79.3834 86.7283 79.3834C86.2201 79.3834 85.9549 79.5609 85.9549 79.916C85.9403 80.0784 85.9403 80.2418 85.9549 80.4042C85.9549 80.6262 85.9549 80.7815 85.9549 80.8703C85.9549 81.8024 85.5572 82.2684 84.7838 82.2684C84.6231 82.2758 84.4627 82.2479 84.3139 82.1865C84.165 82.1252 84.0313 82.032 83.9221 81.9133C83.7101 81.6505 83.6002 81.3193 83.6127 80.9812C83.599 80.7299 83.599 80.478 83.6127 80.2267C83.6334 79.983 83.6334 79.738 83.6127 79.4943C83.6282 79.2357 83.6282 78.9763 83.6127 78.7176C83.6127 78.4513 83.6127 78.2515 83.6127 78.0962C83.5975 78.0024 83.6046 77.9063 83.6337 77.8158C83.6627 77.7253 83.7127 77.6431 83.7797 77.5759C83.8466 77.5087 83.9285 77.4584 84.0185 77.4293C84.1086 77.4001 84.2043 77.3929 84.2977 77.4082H85.2037C86.0212 77.4082 87.1923 77.5192 88.6728 77.5192C90.1533 77.5192 91.3465 77.5192 92.1861 77.4082H93.07C93.1642 77.3939 93.2604 77.4016 93.3512 77.4307C93.4419 77.4599 93.5248 77.5097 93.5932 77.5763C93.6616 77.6429 93.7138 77.7244 93.7457 77.8146C93.7776 77.9048 93.7883 78.0012 93.7771 78.0962C93.7771 78.2515 93.7771 78.4735 93.7771 78.7842C93.7771 79.0949 93.7771 79.339 93.7771 79.4943C93.7771 79.6497 93.7771 79.8938 93.7771 80.2267C93.7771 80.5596 93.7771 80.9147 93.7771 80.9812C93.791 81.3263 93.6812 81.6649 93.4677 81.9355C93.2694 82.0598 93.0385 82.1217 92.8048 82.1131C92.0315 82.1131 91.6558 81.6692 91.6558 80.7593C91.6379 80.5971 91.6379 80.4333 91.6558 80.2711C91.6558 80.0713 91.6558 79.916 91.6558 79.805C91.6558 79.6941 91.4127 79.228 90.9708 79.228C90.8525 79.2165 90.7332 79.2326 90.622 79.2749C90.5109 79.3172 90.411 79.3847 90.33 79.4721C90.172 79.7149 90.1018 80.0048 90.1312 80.2933V84.7318C90.1312 85.3754 90.3079 85.6861 90.6615 85.6861H91.1697H91.6779C91.8062 85.6665 91.9373 85.6779 92.0604 85.7192C92.1835 85.7606 92.295 85.8309 92.3857 85.9241C92.4763 86.0174 92.5436 86.131 92.5819 86.2555C92.6202 86.3801 92.6285 86.512 92.606 86.6404C92.606 87.4615 92.2303 87.861 91.4569 87.861H90.3742C89.7555 87.861 89.2252 87.861 88.7612 87.861C88.2972 87.861 87.7889 87.861 87.1702 87.861H86.0875C85.9319 87.8862 85.7725 87.8748 85.6221 87.8275C85.4716 87.7803 85.3341 87.6986 85.2205 87.5888C85.1069 87.479 85.0203 87.3442 84.9675 87.195C84.9148 87.0458 84.8973 86.8863 84.9164 86.7291C84.9164 86.0412 85.2479 85.6861 85.8666 85.6861H86.3748L86.9493 85.8414Z" fill="#4946F9"/>
<path d="M98.4174 85.8415C98.6383 85.8415 98.7709 85.7083 98.8151 85.442C98.8308 85.2203 98.8308 84.9979 98.8151 84.7762V80.3377C98.8316 80.1235 98.8316 79.9083 98.8151 79.6941C98.8151 79.4278 98.6825 79.2946 98.4174 79.2946H98.0638H97.6882C97.5687 79.2914 97.4514 79.2619 97.3445 79.2082C97.2376 79.1546 97.1438 79.078 97.0695 78.9839C96.9081 78.7757 96.8293 78.5148 96.8485 78.2516C96.9081 78.0234 97.04 77.8209 97.2242 77.6746C97.333 77.5707 97.4613 77.4897 97.6017 77.4364C97.7421 77.383 97.8917 77.3584 98.0417 77.3639H99.1466H100.251C100.671 77.3883 101.091 77.3883 101.511 77.3639H102.594C102.747 77.3415 102.903 77.3554 103.05 77.4044C103.197 77.4534 103.33 77.5361 103.44 77.646C103.549 77.7559 103.631 77.89 103.68 78.0375C103.729 78.185 103.743 78.3419 103.721 78.4957C103.732 78.628 103.716 78.7611 103.674 78.887C103.632 79.013 103.565 79.129 103.477 79.2281C103.41 79.3241 103.321 79.4025 103.217 79.4566C103.113 79.5106 102.998 79.5388 102.881 79.5388H102.505H102.152C101.864 79.5388 101.732 79.8938 101.732 80.5818V85.0203C101.732 85.7305 101.864 86.0856 102.152 86.0856H102.505H102.881C102.998 86.0855 103.113 86.1137 103.217 86.1678C103.321 86.2219 103.41 86.3002 103.477 86.3963C103.649 86.6002 103.736 86.8623 103.721 87.1286C103.735 87.4295 103.632 87.7242 103.433 87.9498C103.336 88.0587 103.217 88.1449 103.083 88.2024C102.95 88.2599 102.805 88.2873 102.66 88.2826H102.505H101.533C101.261 88.2588 100.987 88.2588 100.715 88.2826C100.251 88.2826 99.7653 88.2826 99.257 88.2826H98.0417C97.8945 88.2934 97.7467 88.2711 97.6091 88.2174C97.4715 88.1636 97.3476 88.0798 97.2463 87.9719C97.1396 87.865 97.0568 87.7365 97.0035 87.5949C96.9501 87.4533 96.9274 87.3019 96.9369 87.1508C96.9222 86.8813 97.0002 86.6149 97.1579 86.3963C97.236 86.3084 97.3312 86.2375 97.4376 86.1879C97.544 86.1383 97.6593 86.111 97.7766 86.1078H98.1522L98.4174 85.8415Z" fill="#4946F9"/>
<path d="M113.355 78.3177L114.658 84.0212L116.006 78.5396C116.069 78.2069 116.196 77.8901 116.382 77.6075C116.453 77.5182 116.544 77.4474 116.648 77.401C116.752 77.3547 116.865 77.3341 116.978 77.3412H118.017C118.37 77.3647 118.724 77.3647 119.078 77.3412L120.934 77.208H121.53C121.84 77.1983 122.141 77.3097 122.37 77.5187C122.474 77.6273 122.556 77.7561 122.609 77.8973C122.662 78.0384 122.686 78.189 122.679 78.3398C122.69 78.6056 122.604 78.8662 122.436 79.0722C122.369 79.1683 122.28 79.2466 122.176 79.3007C122.072 79.3548 121.957 79.383 121.84 79.3829H121.442H121.088C120.801 79.3829 120.669 79.738 120.669 80.426V84.8645C120.669 85.5747 120.801 85.9297 121.066 85.9297H121.442H121.818C121.934 85.9297 122.05 85.9579 122.154 86.0119C122.257 86.066 122.347 86.1444 122.414 86.2404C122.591 86.4422 122.686 86.7038 122.679 86.9728C122.689 87.126 122.666 87.2795 122.612 87.423C122.557 87.5664 122.473 87.6963 122.364 87.8038C122.255 87.9113 122.124 87.9938 121.98 88.0457C121.836 88.0977 121.683 88.1177 121.53 88.1046C121.199 88.1267 120.867 88.1267 120.536 88.1046C120.227 88.0828 119.917 88.0828 119.608 88.1046C119.321 88.0802 119.033 88.0802 118.746 88.1046H117.862C117.722 88.1134 117.581 88.0901 117.451 88.0362C117.321 87.9824 117.205 87.8995 117.111 87.7939C117.012 87.6829 116.935 87.5531 116.886 87.4122C116.836 87.2713 116.815 87.1219 116.824 86.9728C116.824 86.3292 117.023 85.9963 117.465 85.9963H117.796C117.951 85.9963 118.061 85.8632 118.083 85.6412C118.105 85.4193 118.083 85.3527 118.083 85.1086V79.05L115.874 86.7509C115.682 87.4166 115.373 87.7495 114.946 87.7495H113.951C113.531 87.7495 113.244 87.461 113.089 86.8618L111.034 79.05V84.9533C111.034 85.4415 111.034 85.73 111.167 85.7744C111.3 85.8188 111.167 85.7744 111.344 85.7744H111.653C112.073 85.7744 112.294 86.0851 112.294 86.7287C112.305 87.0358 112.203 87.3362 112.007 87.572C111.914 87.6789 111.798 87.7627 111.668 87.8167C111.537 87.8706 111.396 87.8932 111.255 87.8827C111.072 87.9014 110.887 87.9014 110.703 87.8827H110.151H109.399H108.516L107.543 88.0158C107.398 88.0205 107.253 87.9931 107.12 87.9356C106.986 87.8781 106.867 87.7918 106.77 87.6829C106.661 87.5763 106.576 87.4483 106.519 87.3071C106.462 87.1658 106.435 87.0142 106.438 86.8618C106.43 86.5896 106.516 86.3229 106.682 86.1073C106.76 86.0194 106.855 85.9485 106.961 85.8989C107.068 85.8493 107.183 85.822 107.3 85.8188H107.676H108.029C108.25 85.8188 108.383 85.6856 108.427 85.4193C108.443 85.1977 108.443 84.9752 108.427 84.7535V80.315C108.444 80.1008 108.444 79.8856 108.427 79.6714C108.427 79.4051 108.295 79.2719 108.029 79.2719H107.676H107.3C107.181 79.2687 107.063 79.2392 106.957 79.1856C106.85 79.1319 106.756 79.0553 106.682 78.9612C106.514 78.7552 106.428 78.4946 106.438 78.2289C106.419 78.0717 106.437 77.9122 106.49 77.763C106.542 77.6139 106.629 77.479 106.743 77.3692C106.856 77.2594 106.994 77.1777 107.144 77.1305C107.295 77.0832 107.454 77.0718 107.61 77.0971H108.847C109.281 77.1211 109.716 77.1211 110.151 77.0971C110.636 77.1289 111.123 77.1289 111.609 77.0971H112.427C112.526 77.0884 112.626 77.0997 112.721 77.1301C112.815 77.1606 112.903 77.2097 112.979 77.2746C113.179 77.5904 113.307 77.9465 113.355 78.3177Z" fill="#4946F9"/>
<path d="M131.253 79.3168C131.027 79.2675 130.793 79.2675 130.568 79.3168C130.413 79.3168 130.347 79.6275 130.347 79.9382V80.8259C130.318 80.9575 130.318 81.0938 130.347 81.2253C130.347 81.2253 130.501 81.3585 130.7 81.3585C130.899 81.3585 131.385 81.181 131.385 80.8481V80.4042C131.385 79.9826 131.628 79.7606 132.136 79.7606C132.244 79.746 132.354 79.7566 132.457 79.7915C132.56 79.8265 132.654 79.8849 132.731 79.9622C132.808 80.0396 132.866 80.1337 132.901 80.2373C132.936 80.3409 132.946 80.4512 132.932 80.5596C132.942 80.7148 132.942 80.8704 132.932 81.0256C132.912 81.3434 132.912 81.6621 132.932 81.9799C132.914 82.3273 132.914 82.6755 132.932 83.023C132.932 83.4372 132.932 83.7257 132.932 83.8885C132.932 84.5099 132.645 84.8206 132.092 84.8206C131.986 84.8315 131.879 84.8182 131.778 84.7816C131.678 84.745 131.587 84.686 131.513 84.6092C131.439 84.5323 131.382 84.4395 131.349 84.3377C131.315 84.236 131.305 84.1279 131.319 84.0216C131.312 83.9034 131.312 83.7848 131.319 83.6665C131.319 83.4002 131.098 83.2893 130.656 83.2893C130.214 83.2893 130.214 83.4446 130.214 83.7775V84.9537C130.191 85.2177 130.253 85.4821 130.391 85.7083C130.608 85.8462 130.864 85.9085 131.12 85.8858H132.026C132.495 85.9144 132.966 85.8619 133.418 85.7305C133.54 85.6804 133.643 85.594 133.714 85.4828C133.786 85.3716 133.821 85.2411 133.816 85.1091C133.816 84.9759 133.816 84.7984 133.816 84.5986C133.816 84.3989 133.816 84.2214 133.816 84.0882C133.805 83.9217 133.829 83.7548 133.886 83.5981C133.943 83.4414 134.032 83.2984 134.147 83.1783C134.264 83.0654 134.403 82.9776 134.555 82.9203C134.707 82.8631 134.869 82.8376 135.031 82.8454C135.782 82.8454 136.158 83.2671 136.158 84.0882C136.179 84.3763 136.179 84.6656 136.158 84.9537C136.158 85.4567 136.158 85.7674 136.158 85.8858C136.146 86.115 136.146 86.3446 136.158 86.5738C136.18 86.7729 136.18 86.9738 136.158 87.173C136.158 87.6612 135.849 87.9053 135.252 87.9053C134.921 87.9222 134.589 87.9222 134.258 87.9053C133.506 87.9053 132.291 87.9053 130.634 87.7944H129.242H127.96H126.767H126.634C126.489 87.799 126.345 87.7716 126.211 87.7141C126.077 87.6566 125.958 87.5704 125.861 87.4615C125.755 87.3537 125.673 87.225 125.62 87.0837C125.567 86.9423 125.544 86.7913 125.552 86.6403C125.536 86.374 125.623 86.1119 125.795 85.908C125.866 85.8102 125.959 85.7309 126.066 85.6769C126.174 85.6228 126.293 85.5955 126.413 85.5973H126.767H127.143C127.408 85.5973 127.562 85.2422 127.562 84.5321V80.0935C127.562 79.4056 127.408 79.0505 127.143 79.0505H126.767H126.413C126.294 79.0473 126.177 79.0178 126.07 78.9641C125.963 78.9104 125.869 78.8338 125.795 78.7398C125.627 78.5337 125.541 78.2732 125.552 78.0074C125.529 77.8536 125.543 77.6967 125.592 77.5492C125.641 77.4017 125.723 77.2676 125.833 77.1577C125.942 77.0478 126.076 76.9651 126.222 76.9161C126.369 76.8671 126.525 76.8533 126.679 76.8756H127.761C128.557 76.8756 129.352 76.8756 130.104 76.8756H131.982H133.661H135.053C135.65 76.8756 135.937 77.1197 135.937 77.6301C135.952 77.8814 135.952 78.1334 135.937 78.3847C135.937 78.6954 135.937 78.9395 135.937 79.1171C135.922 79.3535 135.922 79.5907 135.937 79.8272C135.952 80.0563 135.952 80.2861 135.937 80.5152C135.939 80.6607 135.91 80.805 135.853 80.9388C135.796 81.0726 135.712 81.1929 135.606 81.2919C135.546 81.4853 135.441 81.6612 135.298 81.8043C135.156 81.9474 134.981 82.0534 134.788 82.1131C134.015 82.1131 133.617 81.7136 133.617 80.8925C133.594 80.7083 133.594 80.5219 133.617 80.3376C133.631 80.1604 133.631 79.9823 133.617 79.805C133.623 79.7026 133.59 79.6016 133.524 79.5231C133.458 79.4446 133.365 79.3946 133.263 79.3834H131.054L131.253 79.3168Z" fill="#4946F9"/>
<path d="M22.3837 93.209H27.2449V94.0301H23.2675V96.0718H26.9355V96.8486H23.2675V99.0678H27.3112V99.8668H22.3837V93.209Z" fill="#4946F9"/>
<path d="M29.9186 93.209H30.935L34.2716 98.6462V93.209H35.1333V99.8668H34.1169L30.7362 94.4296V99.8668H29.8523L29.9186 93.209Z" fill="#4946F9"/>
<path d="M38.1163 93.2086H40.79C41.2098 93.1765 41.6311 93.2489 42.0164 93.4192C42.4018 93.5895 42.7395 93.8525 42.9996 94.185C43.4497 94.8353 43.6818 95.6126 43.6625 96.4043C43.6721 97.0694 43.5363 97.7284 43.2648 98.3351C43.0762 98.8087 42.7446 99.2112 42.3166 99.4858C41.8885 99.7605 41.3856 99.8936 40.8784 99.8664H38.1163V93.2086ZM40.6132 99.1562C40.8621 99.1957 41.1156 99.1957 41.3645 99.1562C41.7084 99.0195 42.0018 98.7792 42.2042 98.4682C42.3986 98.1497 42.5264 97.7949 42.5798 97.4252C42.5996 97.1889 42.5996 96.9513 42.5798 96.715C42.6238 96.0291 42.4539 95.3465 42.0937 94.7621C41.9123 94.5282 41.6762 94.343 41.4063 94.223C41.1365 94.1029 40.8412 94.0518 40.5469 94.0741H38.956V99.245L40.6132 99.1562Z" fill="#4946F9"/>
<path d="M46.2257 93.209H47.1317V99.1344H50.4903V99.8668H46.2257V93.209Z" fill="#4946F9"/>
<path d="M52.8987 93.209H57.7599V94.0301H53.7825V96.0718H57.4505V96.8486H53.7825V99.0678H57.8262V99.8668H52.8987V93.209Z" fill="#4946F9"/>
<path d="M61.0302 97.6472C61.0382 97.9755 61.1295 98.2963 61.2954 98.5793C61.4736 98.8155 61.7099 99.001 61.981 99.1177C62.2522 99.2345 62.5489 99.2784 62.8421 99.2451C63.1419 99.2477 63.4402 99.2027 63.726 99.112C63.9538 99.0569 64.1564 98.9261 64.3008 98.7407C64.4452 98.5554 64.523 98.3264 64.5214 98.0911C64.5369 97.944 64.5145 97.7953 64.4565 97.6593C64.3985 97.5234 64.3067 97.4046 64.19 97.3144C63.8617 97.1215 63.503 96.9863 63.1294 96.9149L62.2455 96.693C61.8167 96.6213 61.4047 96.4708 61.0302 96.2491C60.8249 96.1174 60.6589 95.9323 60.55 95.7135C60.4411 95.4947 60.3932 95.2503 60.4115 95.0063C60.4016 94.727 60.4495 94.4487 60.5522 94.1889C60.6548 93.9291 60.8101 93.6936 61.0081 93.4972C61.4901 93.0943 62.1054 92.8884 62.7316 92.9202C63.3524 92.9023 63.9631 93.0808 64.4772 93.4306C64.7253 93.6218 64.9219 93.8721 65.0492 94.1589C65.1765 94.4457 65.2306 94.7598 65.2064 95.0729H64.3447C64.3162 94.804 64.2254 94.5456 64.0795 94.3183C63.9086 94.1355 63.6982 93.9945 63.4646 93.906C63.2309 93.8175 62.9802 93.784 62.7316 93.8079C62.3344 93.7717 61.9386 93.8909 61.6268 94.1408C61.5201 94.2441 61.4356 94.3683 61.3785 94.5057C61.3215 94.6432 61.2932 94.7909 61.2954 94.9397C61.2897 95.0835 61.3238 95.226 61.3941 95.3514C61.4643 95.4768 61.5678 95.5801 61.6931 95.6499C62.0682 95.8192 62.461 95.9458 62.8642 96.0272L63.7923 96.2269C64.1578 96.3032 64.5038 96.4543 64.8087 96.6708C65.0121 96.8303 65.1745 97.0364 65.2821 97.272C65.3898 97.5076 65.4396 97.7656 65.4274 98.0245C65.4571 98.3389 65.3982 98.6554 65.2576 98.9379C65.117 99.2204 64.9002 99.4576 64.6319 99.6224C64.079 99.9565 63.443 100.126 62.7979 100.111C62.0991 100.148 61.412 99.9184 60.8755 99.467C60.6473 99.2436 60.4698 98.9732 60.3554 98.6744C60.241 98.3756 60.1923 98.0555 60.2126 97.736L61.0302 97.6472Z" fill="#4946F9"/>
<path d="M68.6756 97.6476C68.6836 97.9759 68.7749 98.2967 68.9408 98.5797C69.1155 98.814 69.348 98.9987 69.6153 99.1154C69.8826 99.2321 70.1756 99.277 70.4654 99.2455C70.7653 99.2496 71.0638 99.2046 71.3493 99.1123C71.5771 99.0573 71.7797 98.9264 71.9241 98.7411C72.0685 98.5558 72.1463 98.3268 72.1448 98.0915C72.1602 97.9444 72.1379 97.7957 72.0798 97.6597C72.0218 97.5237 71.9301 97.405 71.8133 97.3147C71.4868 97.1181 71.1274 96.9827 70.7527 96.9153L69.8909 96.6933C69.4553 96.6209 69.0362 96.4706 68.6535 96.2495C68.453 96.1129 68.2909 95.9269 68.1825 95.7093C68.0742 95.4917 68.0233 95.2497 68.0348 95.0067C68.0291 94.726 68.0811 94.447 68.1875 94.1874C68.294 93.9277 68.4526 93.6929 68.6535 93.4976C69.1322 93.0888 69.7499 92.882 70.377 92.9206C70.9974 92.9056 71.6072 93.0839 72.1227 93.431C72.3637 93.6272 72.5539 93.879 72.677 94.1649C72.8002 94.4509 72.8526 94.7626 72.8297 95.0733H71.968C71.9435 94.7758 71.8528 94.4876 71.7028 94.23C71.5309 94.0485 71.3204 93.9084 71.087 93.82C70.8536 93.7316 70.6034 93.6973 70.3549 93.7195C70.158 93.6992 69.9591 93.7181 69.7695 93.7753C69.5799 93.8324 69.4034 93.9266 69.2501 94.0524C69.136 94.151 69.045 94.2738 68.9839 94.412C68.9227 94.5501 68.8929 94.7002 68.8966 94.8514C68.8909 94.9951 68.9251 95.1376 68.9953 95.263C69.0655 95.3884 69.169 95.4918 69.2943 95.5615C69.6761 95.7334 70.0766 95.86 70.4875 95.9388L71.3935 96.1385C71.7605 96.2103 72.1074 96.3618 72.4099 96.5824C72.6177 96.7379 72.7832 96.9434 72.8914 97.1799C72.9995 97.4165 73.0467 97.6765 73.0286 97.9361C73.0583 98.2506 72.9994 98.567 72.8588 98.8495C72.7182 99.132 72.5014 99.3692 72.2331 99.534C71.6817 99.8716 71.0446 100.041 70.3991 100.022C69.7069 100.061 69.0263 99.8306 68.4989 99.3786C68.2666 99.1572 68.0851 98.8877 67.9668 98.5888C67.8485 98.2899 67.7963 97.9688 67.8139 97.6476H68.6756Z" fill="#4946F9"/>
<path d="M79.7017 93.209H80.6076V99.1344H83.9663V99.8668H79.7017V93.209Z" fill="#4946F9"/>
<path d="M86.3969 93.209H91.2581V94.0301H87.2807V96.0718H90.9487V96.8486H87.2807V99.0678H91.3243V99.8668H86.3969V93.209Z" fill="#4946F9"/>
<path d="M95.8763 93.209H96.9148L99.4338 99.8668H98.4395L97.7545 97.8472H95.0145L94.2853 99.8668H93.3573L95.8763 93.209ZM97.3788 97.1815L96.3624 94.2077L95.2797 97.1815H97.3788Z" fill="#4946F9"/>
<path d="M101.643 93.2092H104.693C105.117 93.1891 105.539 93.2649 105.93 93.4312C106.231 93.5679 106.482 93.7952 106.648 94.0815C106.814 94.3678 106.888 94.6989 106.858 95.029C106.881 95.3721 106.796 95.7136 106.615 96.0055C106.448 96.2721 106.211 96.4871 105.93 96.6269C106.154 96.7168 106.351 96.8618 106.505 97.0486C106.665 97.2994 106.742 97.5945 106.726 97.8919V98.8018C106.697 98.9931 106.697 99.1875 106.726 99.3788C106.734 99.465 106.765 99.5474 106.815 99.6176C106.866 99.6878 106.934 99.7432 107.013 99.7783V99.867H106.063V99.6451C106.063 99.6451 106.063 99.3788 106.063 99.1125V97.9807C106.074 97.8046 106.034 97.629 105.948 97.4754C105.861 97.3217 105.732 97.1965 105.577 97.1151C105.326 97.0082 105.053 96.9626 104.781 96.982H102.77V99.867H101.643V93.2092ZM104.604 96.294C104.948 96.3103 105.288 96.2171 105.577 96.0277C105.711 95.9202 105.815 95.7804 105.881 95.6213C105.947 95.4622 105.971 95.289 105.952 95.1178C105.971 94.92 105.933 94.7209 105.843 94.544C105.753 94.3671 105.615 94.2197 105.444 94.1191C105.214 94.02 104.965 93.9745 104.715 93.986H102.505V96.2052L104.604 96.294Z" fill="#4946F9"/>
<path d="M109.709 93.209H110.769L114.128 98.6462V93.209H114.901V99.8668H113.885L110.482 94.474V99.8668H109.62L109.709 93.209Z" fill="#4946F9"/>
<path d="M118.061 93.209H118.989V99.8668H118.061V93.209Z" fill="#4946F9"/>
<path d="M121.862 93.209H122.922L126.259 98.6462V93.209H127.121V99.8668H126.104L122.723 94.4296V99.8668H121.862V93.209Z" fill="#4946F9"/>
<path d="M134.457 93.3865C134.794 93.5701 135.081 93.834 135.293 94.1552C135.505 94.4764 135.635 94.8449 135.672 95.2284H134.788C134.715 94.7936 134.478 94.404 134.125 94.141C133.742 93.9011 133.295 93.7849 132.844 93.8081C132.553 93.8075 132.266 93.8708 132.003 93.9935C131.739 94.1162 131.506 94.2953 131.319 94.5183C130.86 95.1112 130.639 95.8557 130.7 96.6044C130.664 97.2925 130.842 97.9749 131.208 98.5573C131.399 98.8188 131.654 99.026 131.948 99.1583C132.243 99.2906 132.567 99.3435 132.888 99.3119C133.425 99.335 133.949 99.1435 134.346 98.7793C134.56 98.5526 134.723 98.2832 134.826 97.9887C134.929 97.6943 134.968 97.3814 134.943 97.0704H132.733V96.3159H135.694V99.8667H135.097L134.876 99.0012C134.648 99.2764 134.38 99.5158 134.081 99.7114C133.617 99.9504 133.099 100.065 132.578 100.044C131.832 100.062 131.11 99.7827 130.568 99.2675C130.246 98.9066 129.999 98.4857 129.84 98.0287C129.68 97.5718 129.612 97.0878 129.64 96.6044C129.592 95.6263 129.915 94.6664 130.546 93.9191C130.82 93.6055 131.161 93.3572 131.543 93.1921C131.926 93.0271 132.339 92.9494 132.755 92.9648C133.35 92.9506 133.937 93.0962 134.457 93.3865Z" fill="#4946F9"/>
</g>
<defs>
<clipPath id="clip0_3_4829">
<rect width="160" height="100" fill="white"/>
</clipPath>
</defs>
</svg>
